<svg width="24" height="24" viewBox="0 0 24 24" fill="none" xmlns="http://www.w3.org/2000/svg">
<path d="M21.2799 6.4003L11.7399 15.9402C10.7899 16.8902 7.96987 17.3302 7.33987 16.7002C6.70987 16.0702 7.13987 13.2502 8.08987 12.3002L17.6399 2.75026C17.8754 2.49332 18.1605 2.28678 18.4781 2.14308C18.7956 1.99938 19.139 1.92148 19.4875 1.91414C19.8359 1.90681 20.1823 1.97016 20.5056 2.10037C20.8289 2.23058 21.1225 2.42497 21.3686 2.67177C21.6147 2.91857 21.8083 3.21267 21.9376 3.53633C22.0669 3.86 22.1294 4.2065 22.1211 4.55495C22.1128 4.9034 22.0339 5.24659 21.8894 5.56374C21.7448 5.88089 21.5375 6.16549 21.2799 6.4003Z" stroke="#593D2D" stroke-width="1.5" stroke-linecap="round" stroke-linejoin="round"/>
<path d="M11 4H6C4.93913 4 3.92178 4.42142 3.17163 5.17157C2.42149 5.92172 2 6.93913 2 8V18C2 19.0609 2.42149 20.0783 3.17163 20.8284C3.92178 21.5786 4.93913 22 6 22H17C19.21 22 20 20.2 20 18V13" stroke="#593D2D" stroke-width="1.5" stroke-linecap="round" stroke-linejoin="round"/>
</svg>
