<svg width="31" height="21" viewBox="0 0 31 21" fill="none" xmlns="http://www.w3.org/2000/svg">
<path fill-rule="evenodd" clip-rule="evenodd" d="M0 10.5C0 10.2064 0.116638 9.92481 0.324254 9.7172C0.53187 9.50958 0.813458 9.39294 1.10707 9.39294H27.2185L20.2506 2.42724C20.0427 2.21936 19.9259 1.93742 19.9259 1.64344C19.9259 1.34945 20.0427 1.06751 20.2506 0.859629C20.4584 0.65175 20.7404 0.534966 21.0344 0.534966C21.3284 0.534966 21.6103 0.65175 21.8182 0.859629L30.6748 9.71621C30.7779 9.81904 30.8596 9.94121 30.9155 10.0757C30.9713 10.2102 31 10.3544 31 10.5C31 10.6456 30.9713 10.7898 30.9155 10.9243C30.8596 11.0588 30.7779 11.181 30.6748 11.2838L21.8182 20.1404C21.6103 20.3483 21.3284 20.4651 21.0344 20.4651C20.7404 20.4651 20.4584 20.3483 20.2506 20.1404C20.0427 19.9325 19.9259 19.6506 19.9259 19.3566C19.9259 19.0626 20.0427 18.7807 20.2506 18.5728L27.2185 11.6071H1.10707C0.813458 11.6071 0.53187 11.4904 0.324254 11.2828C0.116638 11.0752 0 10.7936 0 10.5Z" fill="white"/>
</svg>
