<svg width="22" height="17" viewBox="0 0 22 17" fill="none" xmlns="http://www.w3.org/2000/svg">
<path d="M18.8375 0.6875C18.8375 0.48125 18.7688 0.34375 18.6313 0.20625C18.4937 0.0687498 18.3562 0 18.15 0C17.9438 0 17.8062 0.0687498 17.6688 0.20625L15.8125 2.0625C14.4375 1.375 12.8562 0.9625 11 0.75625C7.5625 1.1 4.8125 2.3375 2.8875 4.5375C0.9625 6.7375 0 7.975 0 8.31875C0 8.6625 1.03125 9.9 2.8875 12.1C3.36875 12.65 3.85 13.1313 4.46875 13.5438L2.6125 15.4688C2.475 15.6062 2.40625 15.7438 2.40625 15.95C2.40625 16.1562 2.475 16.2937 2.6125 16.4312C2.75 16.5688 2.8875 16.6375 3.09375 16.6375C3.3 16.6375 3.4375 16.5688 3.575 16.4312L18.7 1.16875C18.7688 1.03125 18.8375 0.89375 18.8375 0.6875ZM4.95 12.0312C3.3 10.5188 2.2 9.28125 1.65 8.31875C2.26875 7.2875 3.36875 6.05 4.95 4.60625C6.53125 3.1625 8.59375 2.26875 11 2.13125C12.375 2.2 13.6812 2.54375 14.7812 3.09375L13.6125 4.2625C12.8562 3.78125 12.0312 3.50625 11 3.50625C9.625 3.50625 8.525 3.9875 7.5625 4.88125C6.6 5.775 6.1875 6.94375 6.1875 8.31875C6.1875 9.35 6.4625 10.2437 6.94375 11L5.5 12.5125C5.29375 12.375 5.0875 12.1687 4.95 12.0312ZM7.975 9.96875C7.7 9.4875 7.5625 8.9375 7.5625 8.31875C7.5625 7.35625 7.90625 6.53125 8.59375 5.9125C9.28125 5.29375 10.0375 4.88125 11 4.88125C11.6187 4.88125 12.1687 5.01875 12.5812 5.29375L7.975 9.96875ZM19.1125 4.5375C18.8375 4.19375 18.4937 3.91875 18.2187 3.64375L17.1875 4.675C18.7687 6.11875 19.8687 7.35625 20.4187 8.31875C19.8 9.35 18.7 10.5875 17.1187 12.0312C15.5375 13.475 13.4062 14.3688 11 14.5063C9.89998 14.4375 8.86873 14.2313 7.97498 13.8875L6.94373 14.9188C8.18123 15.4 9.48748 15.7438 11 15.8813C14.4375 15.5375 17.1875 14.3 19.1125 12.1C21.0375 9.9 22 8.6625 22 8.31875C22 7.975 20.9687 6.7375 19.1125 4.5375Z" fill="#593D2D"/>
<path d="M11 11.7561C10.725 11.7561 10.45 11.6873 10.175 11.6186L9.07495 12.7186C9.6937 12.9936 10.3125 13.1311 11 13.1311C12.375 13.1311 13.475 12.6498 14.4375 11.7561C15.3312 10.8623 15.8125 9.69355 15.8125 8.31855C15.8125 7.63105 15.675 6.94355 15.4 6.39355L14.3 7.49355C14.3687 7.76855 14.4375 8.04355 14.4375 8.31855C14.4375 9.28105 14.0937 10.1061 13.4062 10.7248C12.7187 11.3436 11.9625 11.7561 11 11.7561Z" fill="#593D2D"/>
</svg>
