<svg width="19" height="23" viewBox="0 0 19 23" fill="none" xmlns="http://www.w3.org/2000/svg">
<path d="M9.4999 15.2874C11.3118 15.2874 12.7806 16.7561 12.7806 18.568C12.7806 20.3799 11.3118 21.8487 9.4999 21.8487C7.68799 21.8487 6.21924 20.3799 6.21924 18.568C6.21924 16.7561 7.68799 15.2874 9.4999 15.2874ZM10.2409 17.1225C10.2409 16.7133 9.90912 16.3815 9.4999 16.3815C9.09067 16.3815 8.75891 16.7133 8.75891 17.1225C8.75891 17.5313 9.09067 17.863 9.4999 17.863C9.90912 17.863 10.2409 17.5313 10.2409 17.1225Z" fill="white" stroke="white" stroke-width="0.045571"/>
<path d="M16.8514 4.2114C17.3792 4.91138 17.658 5.70613 17.658 6.50955C17.658 7.31297 17.3792 8.10773 16.8514 8.8077C16.3953 9.41243 15.7641 9.94333 14.9753 10.3863C13.4906 11.2189 11.5461 11.6773 9.49992 11.6773C7.45378 11.6773 5.50927 11.2189 4.02456 10.3863C3.23573 9.94333 2.60457 9.41243 2.1484 8.8077C1.62069 8.10773 1.3418 7.31297 1.3418 6.50955C1.3418 5.70613 1.62069 4.91138 2.1484 4.2114C2.60457 3.60668 3.23573 3.07577 4.02456 2.63328C5.50927 1.80024 7.45378 1.3418 9.49992 1.3418C11.5461 1.3418 13.4906 1.80024 14.9753 2.63328C15.7641 3.07577 16.3953 3.60668 16.8514 4.2114ZM16.012 7.63197C16.2066 7.27697 16.311 6.9001 16.311 6.50955C16.311 4.39961 13.2614 2.68888 9.49992 2.68888C5.73849 2.68888 2.68888 4.39961 2.68888 6.50955C2.68888 6.9001 2.79323 7.27697 2.98782 7.63197C3.84228 9.19414 6.43482 10.3302 9.49992 10.3302C12.565 10.3302 15.1576 9.19414 16.012 7.63197Z" fill="white" stroke="white" stroke-width="0.045571"/>
<path d="M16.8514 8.80767C16.3953 9.4124 15.7641 9.9433 14.9753 10.3862C13.4906 11.2188 11.5461 11.6773 9.49992 11.6773C7.45378 11.6773 5.50927 11.2188 4.02456 10.3862C3.23573 9.9433 2.60457 9.4124 2.1484 8.80767C1.62069 8.1077 1.3418 7.31294 1.3418 6.50952C1.3418 6.50952 1.3418 7.95139 1.3418 8.75481C1.3418 9.55822 1.62069 10.353 2.1484 11.053C2.60457 11.6577 3.23573 12.1886 4.02456 12.6315C5.50927 13.4641 7.45378 13.9226 9.49992 13.9226C11.5461 13.9226 13.4906 13.4641 14.9753 12.6315C15.7641 12.1886 16.3953 11.6577 16.8514 11.053C17.3792 10.353 17.658 9.55822 17.658 8.75481C17.658 7.95139 17.658 6.50952 17.658 6.50952C17.658 7.31294 17.3792 8.1077 16.8514 8.80767Z" fill="white" stroke="white" stroke-width="0.045571"/>
<path d="M16.3111 6.50964C16.3111 6.90018 16.2067 7.27706 16.0121 7.63205C15.1572 6.06988 12.5651 4.93425 9.50001 4.93425C6.4349 4.93425 3.84282 6.06988 2.98791 7.63205C2.79332 7.27706 2.68896 6.90018 2.68896 6.50964C2.68896 4.3997 5.73858 2.68896 9.50001 2.68896C13.2614 2.68896 16.3111 4.3997 16.3111 6.50964Z" fill="#FFF3EC" stroke="white" stroke-width="0.045571"/>
<path d="M17.1244 4.00555C16.6398 3.36286 15.973 2.80078 15.1424 2.33496C13.6077 1.47408 11.6039 1 9.5 1C7.39608 1 5.39223 1.47408 3.85758 2.33496C3.02704 2.80083 2.36025 3.3629 1.87565 4.00559C1.30282 4.76535 1 5.6312 1 6.50958V8.75487C1 9.63325 1.30282 10.4991 1.87565 11.2589C2.36025 11.9015 3.02709 12.4636 3.85758 12.9294C5.30892 13.7436 7.17989 14.2115 9.15822 14.2599V14.9622C7.32057 15.1351 5.87756 16.686 5.87756 18.5681C5.87756 20.5655 7.50258 22.1905 9.5 22.1905C11.4974 22.1905 13.1224 20.5655 13.1224 18.5681C13.1224 16.686 11.6794 15.1351 9.84178 14.9622V14.2599C11.8201 14.2115 13.6911 13.7435 15.1424 12.9294C15.973 12.4636 16.6398 11.9015 17.1244 11.2588C17.6972 10.4991 18 9.6332 18 8.75482V6.50954C18 5.63116 17.6972 4.76531 17.1244 4.00555ZM2.42141 4.4171C2.84873 3.85042 3.44443 3.35046 4.19198 2.93112C5.62619 2.12661 7.51128 1.68357 9.5 1.68357C11.4887 1.68357 13.3738 2.12661 14.808 2.93112C15.5556 3.35046 16.1513 3.85042 16.5786 4.4171C17.0614 5.05733 17.3165 5.7809 17.3165 6.50958C17.3165 7.23826 17.0613 7.9618 16.5786 8.60202C16.1513 9.16874 15.5556 9.6687 14.808 10.088C13.4562 10.8463 11.7039 11.2833 9.84178 11.331V10.6673C11.5909 10.6203 13.2282 10.2134 14.4834 9.50925C15.8824 8.72447 16.6528 7.6592 16.6528 6.50958C16.6528 5.35996 15.8824 4.29469 14.4834 3.50992C13.1467 2.76009 11.3769 2.34717 9.5 2.34717C7.62307 2.34717 5.85332 2.76009 4.51663 3.50992C3.11764 4.29465 2.34717 5.35996 2.34717 6.50954C2.34717 7.65911 3.11764 8.72443 4.51663 9.50921C5.77183 10.2133 7.40902 10.6202 9.15822 10.6673V11.331C7.29609 11.2832 5.54371 10.8463 4.19193 10.088C3.44443 9.66861 2.84868 9.1687 2.42136 8.60202C1.93867 7.9618 1.68357 7.23822 1.68357 6.50954C1.68357 5.78086 1.93867 5.05733 2.42141 4.4171ZM9.5 9.53267C9.3112 9.53267 9.15822 9.6857 9.15822 9.87446V9.98342C7.52559 9.9373 6.00694 9.56143 4.85107 8.91309C3.67716 8.25464 3.03074 7.40104 3.03074 6.50958C3.03074 5.61812 3.67721 4.76458 4.85107 4.10608C6.08723 3.41267 7.73827 3.03074 9.5 3.03074C11.2617 3.03074 12.9128 3.41262 14.1489 4.10608C15.3228 4.76453 15.9693 5.61812 15.9693 6.50958C15.9693 7.40104 15.3228 8.25459 14.1489 8.91309C12.9931 9.56148 11.4744 9.9373 9.84178 9.98342V9.87446C9.84178 9.6857 9.6888 9.53267 9.5 9.53267ZM4.19193 12.3333C3.44443 11.9139 2.84868 11.414 2.42136 10.8473C1.93863 10.2071 1.68352 9.4835 1.68352 8.75482V8.73878C1.74381 8.8317 1.80766 8.92344 1.8756 9.01353C2.3602 9.65622 3.02704 10.2182 3.85753 10.6841C5.30883 11.4982 7.17984 11.9662 9.15817 12.0147V13.5763C7.29614 13.5285 5.54375 13.0915 4.19193 12.3333ZM9.26681 16.7992C9.32792 16.8563 9.40972 16.8915 9.5 16.8915C9.59028 16.8915 9.67212 16.8563 9.73319 16.7992C9.83349 16.8717 9.89911 16.9894 9.89911 17.1223C9.89911 17.3424 9.72006 17.5214 9.5 17.5214C9.27994 17.5214 9.10089 17.3424 9.10089 17.1223C9.10089 16.9894 9.16651 16.8718 9.26681 16.7992ZM12.4389 18.5681C12.4389 20.1886 11.1205 21.507 9.5 21.507C7.87954 21.507 6.56112 20.1886 6.56112 18.5681C6.56112 17.0632 7.69826 15.8197 9.15822 15.6497V16.0953C8.72825 16.2388 8.41732 16.6448 8.41732 17.1224C8.41732 17.7194 8.90297 18.205 9.5 18.205C10.097 18.205 10.5827 17.7193 10.5827 17.1224C10.5827 16.6449 10.2717 16.2388 9.84178 16.0953V15.6497C11.3017 15.8197 12.4389 17.0632 12.4389 18.5681ZM17.3164 8.75482C17.3164 9.4835 17.0613 10.2071 16.5786 10.8473C16.1513 11.414 15.5556 11.9139 14.808 12.3332C13.4562 13.0915 11.7039 13.5285 9.84174 13.5762V12.0146C11.8201 11.9662 13.6911 11.4982 15.1423 10.6841C15.9729 10.2182 16.6397 9.65617 17.1243 9.01348C17.1923 8.92339 17.2561 8.83166 17.3164 8.73874V8.75482H17.3164Z" fill="#F05A25" stroke="white" stroke-width="0.045571"/>
<path d="M14.9624 6.81448C15.0662 6.81448 15.1687 6.76741 15.2358 6.67809C15.3493 6.5272 15.319 6.31297 15.1681 6.1995C13.8099 5.17825 11.7439 4.59253 9.49991 4.59253C7.2559 4.59253 5.18989 5.17825 3.83169 6.1995C3.68081 6.31297 3.6505 6.5272 3.76398 6.67809C3.8774 6.82897 4.09168 6.85937 4.24256 6.74585C5.46646 5.82554 7.43185 5.27609 9.49991 5.27609C11.568 5.27609 13.5334 5.82554 14.7573 6.74585C14.8188 6.79211 14.891 6.81448 14.9624 6.81448Z" fill="#F05A25" stroke="white" stroke-width="0.045571"/>
</svg>
