<svg width="24" height="17" viewBox="0 0 24 17" fill="none" xmlns="http://www.w3.org/2000/svg">
<path fill-rule="evenodd" clip-rule="evenodd" d="M14.1679 10.5056C14.4489 10.6557 14.6765 10.8893 14.8193 11.1741C14.9332 11.3867 15.0241 11.6108 15.0905 11.8427C15.0987 11.8751 15.0939 11.9094 15.0772 11.9383C15.0604 11.9672 15.033 11.9884 15.0008 11.9974C14.9371 12.0256 14.8832 12.0722 14.846 12.1311C14.7912 12.2054 14.7552 12.2919 14.741 12.3832V12.5208C14.741 12.9028 14.7219 13.6153 14.359 13.6305C14.2831 13.6277 14.2093 13.6053 14.1447 13.5655C14.0801 13.5256 14.0269 13.4697 13.9903 13.4032C13.9129 13.8538 13.6747 14.261 13.3199 14.5493C13.3129 14.6574 13.2815 14.7626 13.2282 14.8568C13.1202 15.0928 12.9412 15.2891 12.7162 15.4184C12.605 15.5628 12.4592 15.677 12.2923 15.7504C12.1255 15.8238 11.9428 15.8542 11.7612 15.8386C11.1308 15.8253 10.8367 15.5903 10.703 15.3611C10.5233 15.231 10.3794 15.0575 10.2847 14.8568C10.2294 14.7606 10.1979 14.6525 10.193 14.5417C9.84105 14.2515 9.60458 13.845 9.52634 13.3956C9.48947 13.4653 9.43459 13.5239 9.3674 13.5652C9.30021 13.6065 9.22317 13.6291 9.14431 13.6305C8.77375 13.6153 8.76228 12.8951 8.76228 12.5208V12.3832C8.7481 12.2919 8.71206 12.2054 8.65723 12.1311C8.62005 12.0722 8.56619 12.0256 8.50251 11.9974C8.48405 11.9965 8.46602 11.9915 8.44969 11.9829C8.43336 11.9742 8.41913 11.9621 8.40802 11.9473C8.3969 11.9325 8.38916 11.9155 8.38536 11.8974C8.38155 11.8793 8.38177 11.8606 8.38599 11.8427C8.45065 11.6083 8.5403 11.3816 8.65341 11.1665C8.79739 10.8851 9.02401 10.6544 9.30285 10.5056C9.569 10.3787 9.87323 10.3568 10.1548 10.4444C10.2879 10.4839 10.416 10.5384 10.5368 10.6068H10.5483C10.6094 10.6068 10.6762 10.6259 10.7947 10.6278C11.1079 10.6278 11.1156 10.4846 11.7402 10.4884C12.3247 10.4884 12.424 10.6374 12.6952 10.6297C12.7869 10.6297 12.85 10.6144 12.9054 10.6106H12.9187C13.0397 10.5426 13.1678 10.4882 13.3007 10.4483C13.5816 10.3606 13.8853 10.3824 14.1508 10.5094L14.1679 10.5056ZM12.0019 4.64147C12.1682 4.6411 12.3309 4.69007 12.4693 4.78219C12.6078 4.87431 12.7158 5.00544 12.7797 5.15898C12.8436 5.31252 12.8605 5.48156 12.8283 5.64472C12.7961 5.80788 12.7162 5.95781 12.5987 6.07554C12.4813 6.19328 12.3315 6.27351 12.1684 6.3061C12.0054 6.33868 11.8363 6.32215 11.6826 6.25859C11.5289 6.19504 11.3975 6.08731 11.3051 5.94906C11.2127 5.81081 11.1633 5.64824 11.1633 5.48193C11.1633 5.25936 11.2516 5.04587 11.4088 4.88831C11.566 4.73075 11.7793 4.64198 12.0019 4.64147ZM21.138 6.24789C21.3405 6.75217 21.6461 7.47228 21.9823 8.22105C22.2573 8.83229 22.5553 9.46073 22.8227 10.0051C23.136 10.6297 23.4072 11.2238 23.4626 11.8522C23.5199 12.5188 23.3404 13.1893 22.731 13.9018C21.946 14.8167 20.5516 15.5464 18.7599 16.0679C16.9682 16.5893 14.6894 16.9179 12.2483 17C12.0573 17 11.8796 17 11.7364 17C11.5931 17 11.425 17 11.2264 17C8.78521 16.9121 6.53508 16.5912 4.71281 16.0621C2.92111 15.5464 1.52863 14.8167 0.741658 13.9018C0.132328 13.1797 -0.0472245 12.5188 0.0100794 11.8522C0.0654731 11.2238 0.336711 10.6297 0.649972 10.0051C0.92312 9.46073 1.22301 8.83229 1.49043 8.22105C1.82661 7.47228 2.13223 6.75217 2.3347 6.24789C2.36768 6.16701 2.42482 6.09828 2.49833 6.0511C2.57183 6.00392 2.65812 5.98059 2.74538 5.98429C2.81812 5.59265 2.98678 5.22514 3.23629 4.91462C3.61701 4.48369 4.10851 4.16527 4.65742 3.99394C4.77776 3.12292 5.42147 2.50786 5.99451 1.96157C6.14159 1.82022 6.28485 1.6846 6.40901 1.55089C7.07209 0.848357 7.93485 0.366304 8.88071 0.169867C9.83849 -0.0464745 10.8385 0.0198817 11.7593 0.36088C11.8204 0.383801 12.0095 0.481218 12.1795 0.567173C12.1918 0.571619 12.2029 0.578805 12.212 0.588185C12.6562 0.264436 13.1795 0.0664725 13.7267 0.0151466C14.3747 -0.0425632 15.0267 0.0652262 15.6216 0.328408C16.1979 0.571748 16.7132 0.939653 17.1306 1.40572C17.4506 1.75512 17.679 2.17843 17.7953 2.63775C18.3426 2.83295 18.8375 3.15196 19.2412 3.56989L19.2642 3.59664C19.5986 3.98971 19.8664 4.43494 20.0569 4.91462C20.1582 5.0926 20.2759 5.26077 20.4083 5.41699C20.5563 5.59895 20.6922 5.79037 20.8152 5.99003H20.84C20.9064 6.00481 20.9682 6.03548 21.0201 6.0794C21.072 6.12331 21.1124 6.17916 21.138 6.24216V6.24789ZM13.8127 0.853692C13.3484 0.897182 12.9098 1.08639 12.5596 1.39426C12.4814 1.46734 12.3782 1.50767 12.2712 1.50696C12.1044 1.4719 11.9452 1.4072 11.8013 1.31594C11.6523 1.24909 11.4919 1.16695 11.4613 1.15549C10.6939 0.868813 9.85959 0.811734 9.06027 0.991222C8.28286 1.15112 7.573 1.54505 7.02598 2.12011C6.89227 2.26528 6.73564 2.41427 6.57328 2.5709C6.06327 3.05607 5.4826 3.61192 5.47495 4.27855C5.48119 4.37233 5.45551 4.46546 5.40211 4.54279C5.3487 4.62013 5.2707 4.67712 5.1808 4.70451C4.57528 4.89552 4.14933 5.12283 3.88764 5.44564C3.64887 5.73789 3.52853 6.13328 3.50561 6.67576C3.72989 7.00398 4.02082 7.28124 4.35944 7.48947C4.91869 7.836 5.52195 8.10583 6.15305 8.29173C6.06324 8.18381 6.01025 8.05004 6.00179 7.90989C5.99333 7.76975 6.02985 7.63057 6.10603 7.51264C6.1822 7.3947 6.29405 7.30418 6.42527 7.25426C6.5565 7.20434 6.70023 7.19763 6.83553 7.23512C6.97083 7.2726 7.09062 7.35232 7.17745 7.46265C7.26427 7.57298 7.3136 7.70815 7.31822 7.84847C7.32285 7.98879 7.28254 8.12692 7.20317 8.24273C7.12381 8.35854 7.00952 8.44598 6.87699 8.49229C8.34238 8.83456 9.84186 9.0095 11.3467 9.01376C14.145 9.04241 17.0121 8.58016 18.8191 7.5888C19.3297 7.32778 19.7804 6.96353 20.1428 6.51913C20.0241 6.31262 19.8873 6.11703 19.7341 5.93463C19.563 5.72717 19.4151 5.50172 19.2928 5.26227C19.1364 4.86465 18.9185 4.49404 18.6472 4.16394L18.6281 4.14484C18.2559 3.7723 17.7962 3.49909 17.291 3.35023C17.213 3.32504 17.1439 3.27767 17.0924 3.2139C17.0408 3.15012 17.0089 3.07271 17.0007 2.99112C16.9431 2.605 16.7676 2.2461 16.4983 1.96348C16.1639 1.59177 15.7517 1.2983 15.2911 1.10392C14.8269 0.896181 14.3174 0.810067 13.8108 0.853692H13.8127ZM21.2163 8.56297C21.0253 8.1542 20.8591 7.75498 20.7044 7.39588C20.1543 8.07397 19.1763 8.61645 17.9557 9.01758C16.4276 9.51612 14.5041 9.81028 12.5252 9.88478C10.6071 9.97045 8.68579 9.81515 6.80631 9.42252C5.01652 9.01758 3.54573 8.3433 2.77976 7.36723C2.62313 7.73397 2.44549 8.14274 2.25639 8.56297C1.98324 9.1723 1.68335 9.81028 1.39874 10.3814C1.1275 10.9239 0.892558 11.4339 0.850536 11.9248C0.810423 12.3775 0.940312 12.8417 1.37964 13.3555C2.05392 14.1424 3.30887 14.7862 4.94585 15.2656C6.70126 15.7756 8.88071 16.085 11.2493 16.171C11.3887 16.171 11.5473 16.171 11.7306 16.171C11.914 16.171 12.0744 16.171 12.212 16.171C14.5863 16.085 16.7657 15.7756 18.5154 15.2656C20.1524 14.79 21.4073 14.1463 22.0816 13.3555C22.5209 12.8417 22.6546 12.3775 22.6107 11.9248C22.5687 11.4339 22.3337 10.9239 22.0625 10.3814C21.776 9.80837 21.478 9.1723 21.2049 8.56297H21.2163ZM10.5654 2.27483C10.6959 2.27445 10.8236 2.31283 10.9323 2.38509C11.0409 2.45736 11.1257 2.56026 11.1758 2.68075C11.2259 2.80124 11.2391 2.9339 11.2138 3.06191C11.1884 3.18992 11.1256 3.30752 11.0333 3.3998C10.9411 3.49207 10.8235 3.55488 10.6954 3.58024C10.5674 3.60561 10.4348 3.5924 10.3143 3.54228C10.1938 3.49217 10.0909 3.40741 10.0186 3.29875C9.94636 3.19008 9.90798 3.06241 9.90836 2.93191C9.90886 2.7578 9.97826 2.59096 10.1014 2.46784C10.2245 2.34472 10.3913 2.27533 10.5654 2.27483ZM16.3073 5.73025C16.4731 5.7295 16.6353 5.77789 16.7736 5.86932C16.9119 5.96075 17.0199 6.09111 17.0842 6.24393C17.1484 6.39675 17.1659 6.56518 17.1344 6.72793C17.1029 6.89069 17.0239 7.04047 16.9074 7.15834C16.7908 7.27622 16.642 7.35692 16.4796 7.39023C16.3172 7.42354 16.1486 7.40797 15.9951 7.3455C15.8415 7.28302 15.7099 7.17644 15.6169 7.03922C15.5239 6.90199 15.4737 6.74029 15.4726 6.57452C15.4715 6.35195 15.5589 6.13806 15.7153 5.97978C15.8718 5.8215 16.0847 5.73176 16.3073 5.73025ZM14.1679 2.18696C14.3156 2.11336 14.4865 2.10139 14.643 2.15368C14.7995 2.20597 14.9289 2.31824 15.0027 2.46584C15.1574 2.77337 15.0313 3.74945 14.7257 3.90417C14.4201 4.05889 14.0438 3.33113 13.8891 3.0236C13.8154 2.87562 13.8034 2.70448 13.8556 2.54765C13.9079 2.39083 14.0202 2.26113 14.1679 2.18696ZM7.00306 4.02068C7.07843 3.98291 7.16051 3.96036 7.2446 3.95432C7.32869 3.94827 7.41315 3.95886 7.49315 3.98547C7.57315 4.01207 7.64713 4.05418 7.71085 4.10939C7.77457 4.16459 7.82679 4.23181 7.86452 4.3072C8.02307 4.62619 8.17206 5.0235 7.85306 5.18204C7.53407 5.34058 6.87317 5.20114 6.70699 4.88215C6.66928 4.80666 6.64683 4.72448 6.64093 4.64031C6.63502 4.55613 6.64577 4.47162 6.67256 4.3916C6.69935 4.31159 6.74165 4.23764 6.79705 4.174C6.85245 4.11035 6.91986 4.05825 6.99542 4.02068H7.00306ZM9.22072 6.82475C9.30701 6.82437 9.39148 6.84964 9.46339 6.89735C9.5353 6.94506 9.59141 7.01306 9.62461 7.09271C9.65781 7.17237 9.6666 7.26009 9.64986 7.34475C9.63311 7.42941 9.5916 7.50718 9.53057 7.56821C9.46955 7.62923 9.39177 7.67075 9.30712 7.68749C9.22246 7.70423 9.13474 7.69545 9.05508 7.66225C8.97542 7.62905 8.90743 7.57293 8.85972 7.50102C8.81201 7.42911 8.78674 7.34465 8.78712 7.25835C8.78712 7.14318 8.83274 7.03269 8.914 6.95107C8.99526 6.86945 9.10554 6.82335 9.22072 6.82284V6.82475ZM10.7221 12.1483C10.7554 12.1479 10.7881 12.1574 10.816 12.1757C10.8439 12.1939 10.8657 12.22 10.8787 12.2507C10.8917 12.2814 10.8953 12.3152 10.8891 12.348C10.8828 12.3807 10.867 12.4108 10.8435 12.4345C10.8201 12.4582 10.7901 12.4744 10.7575 12.4811C10.7248 12.4877 10.6909 12.4845 10.6601 12.4718C10.6293 12.4592 10.6029 12.4376 10.5844 12.4099C10.5658 12.3823 10.5559 12.3497 10.5559 12.3164C10.5556 12.2944 10.5598 12.2726 10.568 12.2522C10.5762 12.2318 10.5884 12.2133 10.6039 12.1976C10.6193 12.182 10.6377 12.1696 10.658 12.1611C10.6783 12.1526 10.7001 12.1483 10.7221 12.1483ZM12.1833 14.2914C12.0611 14.4229 11.9082 14.522 11.7383 14.5799C11.5743 14.5184 11.4256 14.422 11.3028 14.2972C11.2283 14.215 11.1958 14.1845 11.2072 14.0737C11.2144 13.9927 11.2511 13.9172 11.3104 13.8617C11.4349 13.7799 11.5807 13.7363 11.7297 13.7363C11.8787 13.7363 12.0244 13.7799 12.1489 13.8617C12.2072 13.9103 12.2464 13.978 12.2597 14.0527C12.2715 14.0968 12.2705 14.1433 12.257 14.1869C12.2435 14.2305 12.2179 14.2694 12.1833 14.2991V14.2914ZM12.7564 12.1483C12.723 12.1479 12.6904 12.1574 12.6625 12.1757C12.6346 12.1939 12.6127 12.22 12.5997 12.2507C12.5867 12.2814 12.5831 12.3152 12.5894 12.348C12.5956 12.3807 12.6115 12.4108 12.6349 12.4345C12.6583 12.4582 12.6883 12.4744 12.721 12.4811C12.7536 12.4877 12.7875 12.4845 12.8183 12.4718C12.8492 12.4592 12.8755 12.4376 12.8941 12.4099C12.9126 12.3823 12.9225 12.3497 12.9225 12.3164C12.9228 12.2944 12.9187 12.2726 12.9104 12.2522C12.9022 12.2318 12.89 12.2133 12.8745 12.1976C12.8591 12.182 12.8407 12.1696 12.8204 12.1611C12.8001 12.1526 12.7783 12.1483 12.7564 12.1483ZM13.3046 10.708C13.7515 10.9965 13.8241 11.6211 13.891 12.1865C13.9096 12.3791 13.9396 12.5704 13.9808 12.7595C14.0184 12.9351 14.0828 13.1039 14.1718 13.26C14.2214 13.3326 14.2749 13.386 14.3265 13.3841C14.4602 13.3841 14.4697 12.8111 14.4736 12.5227V12.3756C14.4921 12.2376 14.5446 12.1063 14.6264 11.9936C14.6744 11.9248 14.7339 11.8647 14.8021 11.8159C14.7478 11.6359 14.6755 11.4619 14.5863 11.2964C14.471 11.0538 14.2826 10.8534 14.0476 10.7233C13.8376 10.6249 13.5982 10.6092 13.3772 10.6794L13.2931 10.7061L13.3046 10.708ZM9.58173 12.1865C9.64858 11.6134 9.72308 10.9965 10.17 10.708L10.086 10.6813C9.86494 10.6112 9.62557 10.6268 9.41555 10.7252C9.18014 10.8548 8.99163 11.0553 8.87689 11.2983C8.7878 11.4641 8.71488 11.6381 8.65914 11.8178C8.72838 11.8661 8.78852 11.9262 8.83678 11.9955C8.91804 12.1083 8.96991 12.2396 8.98768 12.3775V12.5246C8.98768 12.8168 9.00296 13.3803 9.13667 13.386C9.18824 13.386 9.24173 13.3345 9.28948 13.2619C9.38224 13.1066 9.44993 12.9378 9.49004 12.7614C9.53144 12.5725 9.56079 12.3811 9.57791 12.1884L9.58173 12.1865ZM10.7278 11.9057C10.8351 11.9062 10.9378 11.949 11.0136 12.0248C11.0894 12.1007 11.1323 12.2034 11.1328 12.3106V12.4443C11.1323 12.5516 11.0894 12.6543 11.0136 12.7301C10.9378 12.806 10.8351 12.8488 10.7278 12.8493C10.674 12.8503 10.6205 12.8406 10.5705 12.8207C10.5205 12.8008 10.4749 12.7711 10.4365 12.7334C10.3981 12.6957 10.3676 12.6507 10.3468 12.6011C10.3259 12.5515 10.3152 12.4982 10.3152 12.4443V12.3106C10.3152 12.2032 10.3579 12.1002 10.4338 12.0243C10.5098 11.9484 10.6128 11.9057 10.7202 11.9057H10.7278ZM11.7421 15.1013C12.2655 15.3592 12.68 15.2637 12.955 14.7193C12.996 14.6597 13.0179 14.5891 13.0179 14.5168C13.0179 14.4445 12.996 14.3739 12.955 14.3144L12.8824 14.1749C12.7194 13.8935 12.5443 13.6114 12.3571 13.3287C12.2749 13.1744 12.1554 13.0431 12.0095 12.9467C11.9247 12.9042 11.8312 12.882 11.7364 12.8818C11.6406 12.8834 11.5465 12.907 11.4613 12.9505C11.3164 13.0476 11.1977 13.1788 11.1156 13.3326C10.9303 13.6075 10.7594 13.8918 10.6036 14.1845L10.5311 14.3239C10.4901 14.3835 10.4681 14.4541 10.4681 14.5264C10.4681 14.5987 10.4901 14.6693 10.5311 14.7289C10.8061 15.2675 11.2206 15.363 11.744 15.1109L11.7421 15.1013ZM12.7602 11.9057C12.6528 11.9062 12.5499 11.949 12.4737 12.0247C12.3976 12.1005 12.3543 12.2032 12.3533 12.3106V12.4443C12.3538 12.5519 12.3969 12.6549 12.4732 12.7308C12.5494 12.8067 12.6526 12.8493 12.7602 12.8493C12.8674 12.8488 12.9701 12.806 13.046 12.7301C13.1218 12.6543 13.1646 12.5516 13.1651 12.4443V12.3106C13.1646 12.2034 13.1218 12.1007 13.046 12.0248C12.9701 11.949 12.8674 11.9062 12.7602 11.9057Z" fill="#F05A25"/>
</svg>
