<svg width="24" height="17" viewBox="0 0 24 17" fill="none" xmlns="http://www.w3.org/2000/svg">
<path fill-rule="evenodd" clip-rule="evenodd" d="M14.6679 10.5056C14.9489 10.6557 15.1765 10.8893 15.3193 11.1741C15.4332 11.3867 15.5241 11.6108 15.5905 11.8427C15.5987 11.8751 15.5939 11.9094 15.5772 11.9383C15.5604 11.9672 15.533 11.9884 15.5008 11.9974C15.4371 12.0256 15.3832 12.0722 15.346 12.1311C15.2912 12.2054 15.2552 12.2919 15.241 12.3832V12.5208C15.241 12.9028 15.2219 13.6153 14.859 13.6305C14.7831 13.6277 14.7093 13.6053 14.6447 13.5655C14.5801 13.5256 14.5269 13.4697 14.4903 13.4032C14.4129 13.8538 14.1747 14.261 13.8198 14.5493C13.8129 14.6574 13.7815 14.7626 13.7282 14.8568C13.6202 15.0928 13.4412 15.2891 13.2162 15.4184C13.105 15.5628 12.9592 15.677 12.7923 15.7504C12.6255 15.8238 12.4428 15.8542 12.2612 15.8386C11.6308 15.8253 11.3367 15.5903 11.203 15.3611C11.0233 15.231 10.8794 15.0575 10.7847 14.8568C10.7294 14.7606 10.6979 14.6525 10.693 14.5417C10.341 14.2515 10.1046 13.845 10.0263 13.3956C9.98947 13.4653 9.93459 13.5239 9.8674 13.5652C9.80021 13.6065 9.72318 13.6291 9.64431 13.6305C9.27375 13.6153 9.26228 12.8951 9.26228 12.5208V12.3832C9.2481 12.2919 9.21206 12.2054 9.15723 12.1311C9.12005 12.0722 9.06619 12.0256 9.00251 11.9974C8.98405 11.9965 8.96602 11.9915 8.94969 11.9829C8.93336 11.9742 8.91914 11.9621 8.90802 11.9473C8.8969 11.9325 8.88916 11.9155 8.88536 11.8974C8.88155 11.8793 8.88177 11.8606 8.88599 11.8427C8.95065 11.6083 9.0403 11.3816 9.15341 11.1665C9.29739 10.8851 9.52401 10.6544 9.80285 10.5056C10.069 10.3787 10.3732 10.3568 10.6548 10.4444C10.7879 10.4839 10.916 10.5384 11.0368 10.6068H11.0483C11.1094 10.6068 11.1762 10.6259 11.2947 10.6278C11.6079 10.6278 11.6156 10.4846 12.2402 10.4884C12.8247 10.4884 12.924 10.6374 13.1952 10.6297C13.2869 10.6297 13.35 10.6144 13.4054 10.6106H13.4187C13.5397 10.5426 13.6678 10.4882 13.8007 10.4483C14.0816 10.3606 14.3853 10.3824 14.6508 10.5094L14.6679 10.5056ZM12.5019 4.64147C12.6682 4.6411 12.8309 4.69007 12.9693 4.78219C13.1078 4.87431 13.2158 5.00544 13.2797 5.15898C13.3436 5.31252 13.3605 5.48156 13.3283 5.64472C13.2961 5.80788 13.2162 5.95781 13.0987 6.07554C12.9813 6.19328 12.8315 6.27351 12.6684 6.3061C12.5054 6.33868 12.3363 6.32215 12.1826 6.25859C12.0289 6.19504 11.8975 6.08731 11.8051 5.94906C11.7127 5.81081 11.6633 5.64824 11.6633 5.48193C11.6633 5.25936 11.7516 5.04587 11.9088 4.88831C12.066 4.73075 12.2793 4.64198 12.5019 4.64147ZM21.638 6.24789C21.8405 6.75217 22.1461 7.47228 22.4823 8.22105C22.7573 8.83229 23.0553 9.46073 23.3227 10.0051C23.636 10.6297 23.9072 11.2238 23.9626 11.8522C24.0199 12.5188 23.8404 13.1893 23.231 13.9018C22.446 14.8167 21.0516 15.5464 19.2599 16.0679C17.4682 16.5893 15.1894 16.9179 12.7483 17C12.5573 17 12.3796 17 12.2364 17C12.0931 17 11.925 17 11.7263 17C9.28521 16.9121 7.03508 16.5912 5.21281 16.0621C3.42111 15.5464 2.02863 14.8167 1.24166 13.9018C0.632328 13.1797 0.452776 12.5188 0.510079 11.8522C0.565473 11.2238 0.836711 10.6297 1.14997 10.0051C1.42312 9.46073 1.72301 8.83229 1.99043 8.22105C2.32661 7.47228 2.63223 6.75217 2.8347 6.24789C2.86768 6.16701 2.92482 6.09828 2.99833 6.0511C3.07183 6.00392 3.15812 5.98059 3.24538 5.98429C3.31812 5.59265 3.48678 5.22514 3.73628 4.91462C4.11701 4.48369 4.60851 4.16527 5.15742 3.99394C5.27776 3.12292 5.92147 2.50786 6.49451 1.96157C6.64159 1.82022 6.78485 1.6846 6.90901 1.55089C7.57209 0.848357 8.43485 0.366304 9.38071 0.169867C10.3385 -0.0464745 11.3385 0.0198817 12.2593 0.36088C12.3204 0.383801 12.5095 0.481218 12.6795 0.567173C12.6918 0.571619 12.7029 0.578805 12.712 0.588185C13.1562 0.264436 13.6795 0.0664725 14.2267 0.0151466C14.8747 -0.0425632 15.5267 0.0652262 16.1216 0.328408C16.6979 0.571748 17.2132 0.939653 17.6306 1.40572C17.9506 1.75512 18.179 2.17843 18.2953 2.63775C18.8426 2.83295 19.3375 3.15196 19.7412 3.56989L19.7642 3.59664C20.0986 3.98971 20.3664 4.43494 20.5569 4.91462C20.6582 5.0926 20.7759 5.26077 20.9083 5.41699C21.0563 5.59895 21.1922 5.79037 21.3152 5.99003H21.34C21.4064 6.00481 21.4682 6.03548 21.5201 6.0794C21.572 6.12331 21.6124 6.17916 21.638 6.24216V6.24789ZM14.3127 0.853692C13.8484 0.897182 13.4098 1.0864 13.0596 1.39426C12.9814 1.46734 12.8782 1.50767 12.7712 1.50696C12.6044 1.4719 12.4452 1.4072 12.3013 1.31594C12.1523 1.24909 11.9919 1.16695 11.9613 1.15549C11.1939 0.868813 10.3596 0.811734 9.56026 0.991222C8.78286 1.15112 8.073 1.54505 7.52598 2.12011C7.39227 2.26528 7.23564 2.41427 7.07328 2.5709C6.56327 3.05607 5.9826 3.61192 5.97495 4.27855C5.98119 4.37233 5.95551 4.46546 5.90211 4.54279C5.8487 4.62013 5.7707 4.67712 5.6808 4.70451C5.07528 4.89552 4.64933 5.12283 4.38764 5.44564C4.14887 5.73789 4.02853 6.13328 4.00561 6.67576C4.22989 7.00398 4.52082 7.28124 4.85944 7.48947C5.41869 7.836 6.02195 8.10583 6.65305 8.29173C6.56324 8.18381 6.51025 8.05004 6.50179 7.90989C6.49333 7.76975 6.52985 7.63057 6.60603 7.51264C6.6822 7.3947 6.79405 7.30418 6.92527 7.25426C7.0565 7.20434 7.20023 7.19763 7.33553 7.23512C7.47083 7.2726 7.59062 7.35232 7.67745 7.46265C7.76427 7.57298 7.8136 7.70815 7.81822 7.84847C7.82285 7.98879 7.78254 8.12692 7.70317 8.24273C7.62381 8.35854 7.50952 8.44598 7.37699 8.49229C8.84238 8.83456 10.3419 9.00949 11.8467 9.01376C14.645 9.04241 17.5121 8.58016 19.3191 7.5888C19.8297 7.32778 20.2804 6.96353 20.6428 6.51913C20.5241 6.31262 20.3873 6.11703 20.2341 5.93463C20.063 5.72717 19.9151 5.50172 19.7928 5.26227C19.6364 4.86465 19.4185 4.49404 19.1472 4.16394L19.1281 4.14484C18.7559 3.7723 18.2962 3.49909 17.791 3.35023C17.713 3.32504 17.6439 3.27767 17.5924 3.2139C17.5408 3.15012 17.5089 3.07271 17.5007 2.99112C17.4431 2.605 17.2676 2.2461 16.9983 1.96348C16.6639 1.59177 16.2517 1.2983 15.7911 1.10392C15.3269 0.896181 14.8174 0.810067 14.3108 0.853692H14.3127ZM21.7163 8.56297C21.5253 8.1542 21.3591 7.75498 21.2044 7.39588C20.6543 8.07397 19.6763 8.61645 18.4557 9.01758C16.9276 9.51612 15.0041 9.81028 13.0252 9.88478C11.1071 9.97045 9.18579 9.81515 7.30631 9.42252C5.51652 9.01758 4.04573 8.3433 3.27976 7.36723C3.12313 7.73397 2.94549 8.14274 2.75639 8.56297C2.48324 9.1723 2.18335 9.81028 1.89874 10.3814C1.6275 10.9239 1.39256 11.4339 1.35054 11.9248C1.31042 12.3775 1.44031 12.8417 1.87964 13.3555C2.55392 14.1424 3.80887 14.7862 5.44585 15.2656C7.20126 15.7756 9.38071 16.085 11.7493 16.171C11.8887 16.171 12.0473 16.171 12.2306 16.171C12.414 16.171 12.5744 16.171 12.712 16.171C15.0863 16.085 17.2657 15.7756 19.0154 15.2656C20.6524 14.79 21.9073 14.1463 22.5816 13.3555C23.0209 12.8417 23.1546 12.3775 23.1107 11.9248C23.0687 11.4339 22.8337 10.9239 22.5625 10.3814C22.276 9.80837 21.978 9.1723 21.7049 8.56297H21.7163ZM11.0654 2.27483C11.1959 2.27445 11.3236 2.31283 11.4323 2.38509C11.5409 2.45736 11.6257 2.56026 11.6758 2.68075C11.7259 2.80124 11.7391 2.9339 11.7138 3.06191C11.6884 3.18992 11.6256 3.30752 11.5333 3.3998C11.4411 3.49207 11.3235 3.55488 11.1954 3.58024C11.0674 3.60561 10.9348 3.5924 10.8143 3.54228C10.6938 3.49217 10.5909 3.40741 10.5186 3.29875C10.4464 3.19008 10.408 3.06241 10.4084 2.93191C10.4089 2.7578 10.4783 2.59096 10.6014 2.46784C10.7245 2.34472 10.8913 2.27533 11.0654 2.27483ZM16.8073 5.73025C16.9731 5.7295 17.1353 5.77789 17.2736 5.86932C17.4119 5.96075 17.5199 6.09111 17.5842 6.24393C17.6484 6.39675 17.6659 6.56518 17.6344 6.72793C17.6029 6.89069 17.5239 7.04047 17.4074 7.15834C17.2908 7.27622 17.142 7.35692 16.9796 7.39023C16.8172 7.42354 16.6486 7.40797 16.4951 7.3455C16.3415 7.28302 16.2099 7.17644 16.1169 7.03922C16.0239 6.90199 15.9737 6.74029 15.9726 6.57452C15.9715 6.35195 16.0589 6.13806 16.2153 5.97978C16.3718 5.8215 16.5847 5.73176 16.8073 5.73025ZM14.6679 2.18696C14.8156 2.11336 14.9865 2.10139 15.143 2.15368C15.2995 2.20597 15.4289 2.31824 15.5027 2.46584C15.6574 2.77337 15.5313 3.74945 15.2257 3.90417C14.9201 4.05889 14.5438 3.33113 14.3891 3.0236C14.3154 2.87562 14.3034 2.70448 14.3556 2.54765C14.4079 2.39083 14.5202 2.26113 14.6679 2.18696ZM7.50306 4.02068C7.57843 3.98291 7.66051 3.96036 7.7446 3.95432C7.82869 3.94827 7.91315 3.95886 7.99315 3.98547C8.07315 4.01207 8.14713 4.05418 8.21085 4.10939C8.27457 4.16459 8.32679 4.23181 8.36452 4.3072C8.52307 4.62619 8.67206 5.0235 8.35306 5.18204C8.03407 5.34058 7.37317 5.20114 7.20699 4.88215C7.16928 4.80666 7.14683 4.72448 7.14093 4.64031C7.13502 4.55613 7.14577 4.47162 7.17256 4.3916C7.19935 4.31159 7.24165 4.23764 7.29705 4.174C7.35245 4.11035 7.41986 4.05825 7.49542 4.02068H7.50306ZM9.72072 6.82475C9.80701 6.82437 9.89148 6.84964 9.96339 6.89735C10.0353 6.94506 10.0914 7.01306 10.1246 7.09271C10.1578 7.17237 10.1666 7.26009 10.1499 7.34475C10.1331 7.42941 10.0916 7.50718 10.0306 7.56821C9.96955 7.62923 9.89178 7.67075 9.80712 7.68749C9.72246 7.70423 9.63474 7.69545 9.55508 7.66225C9.47542 7.62905 9.40743 7.57293 9.35972 7.50102C9.31201 7.42911 9.28674 7.34465 9.28712 7.25835C9.28712 7.14318 9.33274 7.03269 9.414 6.95107C9.49526 6.86945 9.60554 6.82335 9.72072 6.82284V6.82475ZM11.2221 12.1483C11.2554 12.1479 11.2881 12.1574 11.316 12.1757C11.3439 12.1939 11.3657 12.22 11.3787 12.2507C11.3917 12.2814 11.3953 12.3152 11.3891 12.348C11.3828 12.3807 11.367 12.4108 11.3435 12.4345C11.3201 12.4582 11.2901 12.4744 11.2575 12.4811C11.2248 12.4877 11.1909 12.4845 11.1601 12.4718C11.1293 12.4592 11.1029 12.4376 11.0844 12.4099C11.0658 12.3823 11.0559 12.3497 11.0559 12.3164C11.0556 12.2944 11.0598 12.2726 11.068 12.2522C11.0762 12.2318 11.0884 12.2133 11.1039 12.1976C11.1193 12.182 11.1377 12.1696 11.158 12.1611C11.1783 12.1526 11.2001 12.1483 11.2221 12.1483ZM12.6833 14.2914C12.5611 14.4229 12.4082 14.522 12.2383 14.5799C12.0743 14.5184 11.9256 14.422 11.8028 14.2972C11.7283 14.215 11.6958 14.1845 11.7072 14.0737C11.7144 13.9927 11.7511 13.9172 11.8104 13.8617C11.9349 13.7799 12.0807 13.7363 12.2297 13.7363C12.3787 13.7363 12.5244 13.7799 12.6489 13.8617C12.7072 13.9103 12.7464 13.978 12.7597 14.0527C12.7715 14.0968 12.7705 14.1433 12.757 14.1869C12.7435 14.2305 12.7179 14.2694 12.6833 14.2991V14.2914ZM13.2564 12.1483C13.223 12.1479 13.1904 12.1574 13.1625 12.1757C13.1346 12.1939 13.1127 12.22 13.0997 12.2507C13.0867 12.2814 13.0831 12.3152 13.0894 12.348C13.0956 12.3807 13.1115 12.4108 13.1349 12.4345C13.1583 12.4582 13.1883 12.4744 13.221 12.4811C13.2536 12.4877 13.2875 12.4845 13.3183 12.4718C13.3492 12.4592 13.3755 12.4376 13.3941 12.4099C13.4126 12.3823 13.4225 12.3497 13.4225 12.3164C13.4228 12.2944 13.4187 12.2726 13.4104 12.2522C13.4022 12.2318 13.39 12.2133 13.3745 12.1976C13.3591 12.182 13.3407 12.1696 13.3204 12.1611C13.3001 12.1526 13.2783 12.1483 13.2564 12.1483ZM13.8046 10.708C14.2515 10.9965 14.3241 11.6211 14.391 12.1865C14.4096 12.3791 14.4396 12.5704 14.4808 12.7595C14.5184 12.9351 14.5828 13.1039 14.6718 13.26C14.7214 13.3326 14.7749 13.386 14.8265 13.3841C14.9602 13.3841 14.9697 12.8111 14.9736 12.5227V12.3756C14.9921 12.2376 15.0446 12.1063 15.1264 11.9936C15.1744 11.9248 15.2339 11.8647 15.3021 11.8159C15.2478 11.6359 15.1755 11.4619 15.0863 11.2964C14.971 11.0538 14.7826 10.8534 14.5476 10.7233C14.3376 10.6249 14.0982 10.6092 13.8772 10.6794L13.7931 10.7061L13.8046 10.708ZM10.0817 12.1865C10.1486 11.6134 10.2231 10.9965 10.67 10.708L10.586 10.6813C10.3649 10.6111 10.1256 10.6268 9.91555 10.7252C9.68014 10.8548 9.49163 11.0553 9.37689 11.2983C9.2878 11.4641 9.21488 11.6381 9.15914 11.8178C9.22838 11.8661 9.28852 11.9262 9.33678 11.9955C9.41804 12.1083 9.46991 12.2396 9.48768 12.3775V12.5246C9.48768 12.8168 9.50296 13.3803 9.63667 13.386C9.68824 13.386 9.74173 13.3345 9.78948 13.2619C9.88224 13.1066 9.94993 12.9378 9.99004 12.7614C10.0314 12.5725 10.0608 12.3811 10.0779 12.1884L10.0817 12.1865ZM11.2278 11.9057C11.3351 11.9062 11.4378 11.949 11.5136 12.0248C11.5894 12.1007 11.6323 12.2034 11.6328 12.3106V12.4443C11.6323 12.5516 11.5894 12.6543 11.5136 12.7301C11.4378 12.806 11.3351 12.8488 11.2278 12.8493C11.174 12.8503 11.1205 12.8406 11.0705 12.8207C11.0205 12.8008 10.9749 12.7711 10.9365 12.7334C10.8981 12.6957 10.8676 12.6507 10.8468 12.6011C10.8259 12.5515 10.8152 12.4982 10.8152 12.4443V12.3106C10.8152 12.2032 10.8579 12.1002 10.9338 12.0243C11.0098 11.9484 11.1128 11.9057 11.2202 11.9057H11.2278ZM12.2421 15.1013C12.7655 15.3592 13.18 15.2637 13.455 14.7193C13.496 14.6597 13.5179 14.5891 13.5179 14.5168C13.5179 14.4445 13.496 14.3739 13.455 14.3144L13.3824 14.1749C13.2194 13.8935 13.0443 13.6114 12.8571 13.3287C12.7749 13.1744 12.6554 13.0431 12.5095 12.9467C12.4247 12.9042 12.3312 12.882 12.2364 12.8818C12.1406 12.8834 12.0465 12.907 11.9613 12.9505C11.8164 13.0476 11.6977 13.1788 11.6156 13.3326C11.4303 13.6075 11.2594 13.8918 11.1036 14.1845L11.0311 14.3239C10.9901 14.3835 10.9681 14.4541 10.9681 14.5264C10.9681 14.5987 10.9901 14.6693 11.0311 14.7289C11.3061 15.2675 11.7206 15.363 12.244 15.1109L12.2421 15.1013ZM13.2602 11.9057C13.1528 11.9062 13.0499 11.949 12.9737 12.0247C12.8976 12.1005 12.8543 12.2032 12.8533 12.3106V12.4443C12.8538 12.5519 12.8969 12.6549 12.9732 12.7308C13.0494 12.8067 13.1526 12.8493 13.2602 12.8493C13.3674 12.8488 13.4701 12.806 13.546 12.7301C13.6218 12.6543 13.6646 12.5516 13.6651 12.4443V12.3106C13.6646 12.2034 13.6218 12.1007 13.546 12.0248C13.4701 11.949 13.3674 11.9062 13.2602 11.9057Z" fill="#593D2D"/>
</svg>
