<svg width="21" height="21" viewBox="0 0 21 21" fill="none" xmlns="http://www.w3.org/2000/svg">
<path d="M19.0107 3.64745C19.0107 3.83063 19.1591 3.97902 19.3423 3.97902C19.5255 3.97902 19.6738 3.83058 19.6738 3.64745C19.6738 2.36764 18.6326 1.32642 17.3528 1.32642C17.1696 1.32642 17.0212 1.47481 17.0212 1.65799C17.0212 1.84116 17.1697 1.98956 17.3528 1.98956C18.267 1.98956 19.0107 2.73329 19.0107 3.64745Z" fill="#593D2D"/>
<path d="M14.921 8.6209C15.1042 8.6209 15.2526 8.4725 15.2526 8.28933C15.2526 8.10615 15.1042 7.95776 14.921 7.95776C14.1287 7.95776 13.4841 7.3132 13.4841 6.5209C13.4841 5.7286 14.1287 5.08404 14.921 5.08404C15.7133 5.08404 16.3579 5.7286 16.3579 6.5209C16.3579 6.9329 16.1806 7.32575 15.8713 7.59862C15.7341 7.71974 15.721 7.92933 15.8422 8.06665C15.9634 8.20397 16.1729 8.21698 16.3102 8.09582C16.762 7.69714 17.021 7.12309 17.021 6.5209C17.021 5.36299 16.079 4.4209 14.921 4.4209C13.7631 4.4209 12.821 5.36299 12.821 6.5209C12.821 7.67881 13.7631 8.6209 14.921 8.6209Z" fill="#593D2D"/>
<path d="M5.63686 20.3369H2.1C1.30774 20.3369 0.663141 19.6923 0.663141 18.9V17.021H4.7526C4.93574 17.021 5.08417 16.8726 5.08417 16.6895C5.08417 16.5063 4.9357 16.3579 4.7526 16.3579H0.663141V11.8263C0.663141 11.3021 0.793529 10.7805 1.0402 10.3179L4.06736 4.64211H6.13422C6.31735 4.64211 6.46579 4.49371 6.46579 4.31054C6.46579 4.12736 6.31731 3.97897 6.13422 3.97897H4.2V2.1C4.2 1.3077 4.8446 0.663141 5.63686 0.663141H11.9369V1.39187L9.08074 2.02658C8.41961 2.1735 7.95793 2.74907 7.95793 3.42628V3.97893H7.39426C7.21112 3.97893 7.06269 4.12732 7.06269 4.3105C7.06269 4.49367 7.21116 4.64207 7.39426 4.64207H8.09058L8.94014 6.23491C8.99981 6.3468 9.11445 6.41054 9.23299 6.41054C9.28565 6.41054 9.33905 6.39795 9.38872 6.37141C9.55033 6.28523 9.61144 6.08438 9.52526 5.92286L8.62112 4.22756V3.42632C8.62112 3.06235 8.86926 2.75297 9.22462 2.67393L12.3404 1.98155C12.4921 1.94787 12.6 1.81334 12.6 1.65789V0.33157C12.6 0.148395 12.4516 0 12.2685 0H5.63686C4.47895 0 3.53686 0.942088 3.53686 2.1V4.22764L0.455109 10.0058C0.157377 10.5641 0 11.1936 0 11.8263V18.9C0 20.0579 0.942088 21 2.1 21H5.63686C5.81999 21 5.96843 20.8516 5.96843 20.6684C5.96843 20.4853 5.81995 20.3369 5.63686 20.3369Z" fill="#593D2D"/>
<path d="M14.0369 3.97897C14.2201 3.97897 14.3685 3.83053 14.3685 3.6474C14.3685 2.00189 15.7072 0.663182 17.3527 0.663182C18.9982 0.663182 20.3369 2.00189 20.3369 3.6474C20.3369 5.06121 19.333 6.29114 17.9499 6.57193C17.7704 6.60831 17.6545 6.78333 17.6909 6.96285C17.7228 7.12007 17.8611 7.22851 18.0155 7.22851C18.0374 7.22851 18.0596 7.22634 18.0819 7.22183C19.7727 6.87853 21 5.3753 21 3.64736C21 1.63624 19.3638 0 17.3527 0C15.3416 0 13.7053 1.63624 13.7053 3.64736C13.7053 3.83053 13.8537 3.97897 14.0369 3.97897Z" fill="#593D2D"/>
<path d="M18.0156 11.9368C17.4671 11.9368 17.0208 11.4906 17.0208 10.9421C17.0208 10.7589 16.8724 10.6105 16.6892 10.6105C16.5061 10.6105 16.3577 10.7589 16.3577 10.9421C16.3577 11.8563 17.1014 12.6 18.0156 12.6C18.9298 12.6 19.6735 11.8563 19.6735 10.9421C19.6735 10.0279 18.9298 9.28418 18.0156 9.28418C17.607 9.28418 17.2145 9.43413 16.9102 9.70639C16.7738 9.82854 16.7621 10.0382 16.8842 10.1746C17.0063 10.311 17.2159 10.3227 17.3525 10.2006C17.5349 10.0373 17.7704 9.94736 18.0155 9.94736C18.564 9.94736 19.0103 10.3936 19.0103 10.9421C19.0103 11.4905 18.564 11.9368 18.0156 11.9368Z" fill="#593D2D"/>
<path d="M18.3473 18.0156C18.3473 17.3452 17.8019 16.7998 17.1316 16.7998C16.4612 16.7998 15.9158 17.3452 15.9158 18.0156C15.9158 18.6859 16.4612 19.2314 17.1316 19.2314C17.8019 19.2314 18.3473 18.6859 18.3473 18.0156ZM16.579 18.0156C16.579 17.7108 16.8269 17.4629 17.1316 17.4629C17.4363 17.4629 17.6842 17.7108 17.6842 18.0156C17.6842 18.3203 17.4363 18.5682 17.1316 18.5682C16.8269 18.5682 16.579 18.3203 16.579 18.0156Z" fill="#593D2D"/>
<path d="M11.937 18.0156C11.937 18.6859 12.4824 19.2314 13.1528 19.2314C13.8232 19.2314 14.3686 18.6859 14.3686 18.0156C14.3686 17.3452 13.8232 16.7998 13.1528 16.7998C12.4824 16.7998 11.937 17.3452 11.937 18.0156ZM13.7054 18.0156C13.7054 18.3203 13.4575 18.5682 13.1528 18.5682C12.848 18.5682 12.6001 18.3203 12.6001 18.0156C12.6001 17.7108 12.848 17.4629 13.1528 17.4629C13.4575 17.4629 13.7054 17.7108 13.7054 18.0156Z" fill="#593D2D"/>
<path d="M8.3999 16.2473C8.3999 16.9176 8.94529 17.4631 9.61569 17.4631C10.2861 17.4631 10.8315 16.9176 10.8315 16.2473C10.8315 15.5769 10.2861 15.0315 9.61569 15.0315C8.94529 15.0315 8.3999 15.5769 8.3999 16.2473ZM10.1683 16.2473C10.1683 16.552 9.92043 16.7999 9.61569 16.7999C9.31094 16.7999 9.06304 16.552 9.06304 16.2473C9.06304 15.9425 9.31094 15.6946 9.61569 15.6946C9.92043 15.6947 10.1683 15.9425 10.1683 16.2473Z" fill="#593D2D"/>
<path d="M19.7842 14.1474C19.7718 14.1474 19.7596 14.148 19.7473 14.1483C19.3797 13.8621 18.9268 13.7053 18.4579 13.7053H15.4161C15.1929 13.4354 14.8557 13.2632 14.4789 13.2632C14.1022 13.2632 13.765 13.4354 13.5418 13.7053H8.28942C7.13151 13.7053 6.18942 14.6474 6.18942 15.8053V17.9629C5.91958 18.186 5.74731 18.5233 5.74731 18.9C5.74731 19.4148 6.06908 19.8556 6.52198 20.0326C6.90658 20.6314 7.5746 21 8.28942 21H15.3631C15.5463 21 15.6947 20.8516 15.6947 20.6685C15.6947 20.4853 15.5462 20.3369 15.3631 20.3369H8.28942C7.96523 20.3369 7.65507 20.2259 7.40595 20.032C7.8579 19.8545 8.17888 19.4142 8.17888 18.9001C8.17888 18.2297 7.6335 17.6843 6.9631 17.6843C6.92582 17.6843 6.88898 17.6863 6.85256 17.6895V15.8053C6.85256 15.013 7.49716 14.3685 8.28942 14.3685H13.2683C13.265 14.4049 13.2631 14.4417 13.2631 14.479C13.2631 15.1494 13.8085 15.6948 14.4789 15.6948C15.1492 15.6948 15.6947 15.1494 15.6947 14.479C15.6947 14.4417 15.6927 14.4049 15.6894 14.3685H18.4579C18.6341 14.3685 18.807 14.4008 18.9687 14.4623C18.723 14.6849 18.5684 15.0063 18.5684 15.3632C18.5684 16.0335 19.1138 16.579 19.7842 16.579C19.8215 16.579 19.8583 16.577 19.8947 16.5737V18.9C19.8947 19.6923 19.2501 20.3369 18.4579 20.3369H16.6894C16.5062 20.3369 16.3579 20.4853 16.3579 20.6685C16.3579 20.8516 16.5062 21 16.6894 21H18.4579C19.6158 21 20.5579 20.058 20.5579 18.9V16.3003C20.8277 16.0772 21 15.74 21 15.3632C21 14.6928 20.4545 14.1474 19.7842 14.1474ZM6.9631 18.3474C7.26785 18.3474 7.51574 18.5953 7.51574 18.9C7.51574 19.2048 7.26785 19.4527 6.9631 19.4527C6.65835 19.4527 6.41046 19.2048 6.41046 18.9C6.41046 18.5953 6.65835 18.3474 6.9631 18.3474ZM14.4789 15.0316C14.1741 15.0316 13.9262 14.7837 13.9262 14.479C13.9262 14.1742 14.1741 13.9263 14.4789 13.9263C14.7836 13.9263 15.0315 14.1742 15.0315 14.479C15.0315 14.7837 14.7836 15.0316 14.4789 15.0316ZM19.7842 15.9158C19.4794 15.9158 19.2315 15.6679 19.2315 15.3632C19.2315 15.0584 19.4794 14.8105 19.7842 14.8105C20.0889 14.8105 20.3368 15.0584 20.3368 15.3632C20.3368 15.6679 20.0889 15.9158 19.7842 15.9158Z" fill="#593D2D"/>
<path d="M11.8265 13.0864C12.0097 13.0864 12.158 12.938 12.158 12.7548V11.8264C12.158 11.1936 12.0007 10.5641 11.7029 10.0059L10.1133 7.02543C10.0271 6.86383 9.82619 6.8028 9.66471 6.88889C9.50311 6.97507 9.44199 7.17592 9.52821 7.33744L11.1179 10.3179C11.2418 10.5503 11.3363 10.7976 11.3998 11.0526H2.54226C2.35913 11.0526 2.21069 11.201 2.21069 11.3842C2.21069 11.5673 2.35917 11.7157 2.54226 11.7157H11.4928C11.4941 11.7526 11.4949 11.7894 11.4949 11.8263V12.7547C11.4949 12.9379 11.6433 13.0864 11.8265 13.0864Z" fill="#593D2D"/>
</svg>
