<svg width="17" height="17" viewBox="0 0 17 17" fill="none" xmlns="http://www.w3.org/2000/svg">
<path d="M11.8699 2.36625e-06C11.6315 -2.58924e-05 11.3994 -5.34153e-05 11.2028 0.0160087C10.9869 0.0336479 10.7321 0.0752672 10.4758 0.205881C10.1204 0.386975 9.83141 0.675939 9.65032 1.03136C9.51971 1.2877 9.47809 1.54245 9.46045 1.75834C9.44439 1.95494 9.44441 2.18707 9.44444 2.42543V5.13013C9.44441 5.36849 9.44439 5.60062 9.46045 5.79722C9.47809 6.01311 9.51971 6.26786 9.65032 6.52421C9.83141 6.87962 10.1204 7.16859 10.4758 7.34968C10.7321 7.48029 10.9869 7.52191 11.2028 7.53955C11.3994 7.55561 11.6315 7.55559 11.8698 7.55556H14.5746C14.8129 7.55559 15.0451 7.55561 15.2417 7.53955C15.4576 7.52191 15.7123 7.48029 15.9686 7.34968C16.3241 7.16859 16.613 6.87962 16.7941 6.52421C16.9247 6.26786 16.9664 6.01311 16.984 5.79722C17.0001 5.60062 17 5.36849 17 5.13013V2.42543C17 2.18707 17.0001 1.95494 16.984 1.75834C16.9664 1.54245 16.9247 1.2877 16.7941 1.03136C16.613 0.675939 16.3241 0.386975 15.9686 0.205881C15.7123 0.0752672 15.4576 0.0336479 15.2417 0.0160087C15.0451 -5.34135e-05 14.8129 -2.5894e-05 14.5746 2.36473e-06L11.8699 2.36625e-06Z" fill="#593D2D"/>
<path d="M2.42543 9.44444C2.18707 9.44441 1.95494 9.44439 1.75834 9.46045C1.54245 9.47809 1.2877 9.51971 1.03136 9.65032C0.675939 9.83141 0.386975 10.1204 0.205881 10.4758C0.0752672 10.7321 0.0336479 10.9869 0.0160087 11.2028C-5.34135e-05 11.3994 -2.5894e-05 11.6315 2.36473e-06 11.8699L2.36625e-06 14.5746C-2.58924e-05 14.8129 -5.34153e-05 15.0451 0.0160087 15.2417C0.0336479 15.4576 0.0752672 15.7123 0.205881 15.9686C0.386975 16.3241 0.675939 16.613 1.03136 16.7941C1.2877 16.9247 1.54245 16.9664 1.75834 16.984C1.95494 17.0001 2.18707 17 2.42543 17H5.13013C5.36849 17 5.60062 17.0001 5.79722 16.984C6.01311 16.9664 6.26786 16.9247 6.52421 16.7941C6.87962 16.613 7.16859 16.3241 7.34968 15.9686C7.48029 15.7123 7.52191 15.4576 7.53955 15.2417C7.55561 15.0451 7.55559 14.813 7.55556 14.5746V11.8699C7.55559 11.6315 7.55561 11.3994 7.53955 11.2028C7.52191 10.9869 7.48029 10.7321 7.34968 10.4758C7.16859 10.1204 6.87962 9.83141 6.52421 9.65032C6.26786 9.51971 6.01311 9.47809 5.79722 9.46045C5.60062 9.44439 5.36849 9.44441 5.13013 9.44444H2.42543Z" fill="#593D2D"/>
<path d="M11.8699 9.44444C11.6315 9.44441 11.3994 9.44439 11.2028 9.46045C10.9869 9.47809 10.7321 9.51971 10.4758 9.65032C10.1204 9.83141 9.83141 10.1204 9.65032 10.4758C9.51971 10.7321 9.47809 10.9869 9.46045 11.2028C9.44439 11.3994 9.44441 11.6315 9.44444 11.8699V14.5746C9.44441 14.8129 9.44439 15.0451 9.46045 15.2417C9.47809 15.4576 9.51971 15.7123 9.65032 15.9686C9.83141 16.3241 10.1204 16.613 10.4758 16.7941C10.7321 16.9247 10.9869 16.9664 11.2028 16.984C11.3994 17.0001 11.6315 17 11.8699 17H14.5746C14.8129 17 15.0451 17.0001 15.2417 16.984C15.4576 16.9664 15.7123 16.9247 15.9686 16.7941C16.3241 16.613 16.613 16.3241 16.7941 15.9686C16.9247 15.7123 16.9664 15.4576 16.984 15.2417C17.0001 15.0451 17 14.8129 17 14.5746V11.8699C17 11.6315 17.0001 11.3994 16.984 11.2028C16.9664 10.9869 16.9247 10.7321 16.7941 10.4758C16.613 10.1204 16.3241 9.83141 15.9686 9.65032C15.7123 9.51971 15.4576 9.47809 15.2417 9.46045C15.0451 9.44439 14.8129 9.44441 14.5746 9.44444H11.8699Z" fill="#593D2D"/>
<path d="M2.42543 2.36625e-06C2.18708 -2.58924e-05 1.95493 -5.34153e-05 1.75834 0.0160087C1.54245 0.0336479 1.2877 0.0752672 1.03136 0.205881C0.675939 0.386975 0.386975 0.675939 0.205881 1.03136C0.0752672 1.2877 0.0336479 1.54245 0.0160087 1.75834C-5.34135e-05 1.95493 -2.5894e-05 2.18706 2.36473e-06 2.42542L2.36625e-06 5.13013C-2.58924e-05 5.36848 -5.34153e-05 5.60063 0.0160087 5.79722C0.0336479 6.01311 0.0752672 6.26786 0.205881 6.52421C0.386975 6.87962 0.675939 7.16859 1.03136 7.34968C1.2877 7.48029 1.54245 7.52191 1.75834 7.53955C1.95493 7.55561 2.18705 7.55559 2.4254 7.55556H5.13013C5.36848 7.55559 5.60063 7.55561 5.79722 7.53955C6.01311 7.52191 6.26786 7.48029 6.52421 7.34968C6.87962 7.16859 7.16859 6.87962 7.34968 6.52421C7.48029 6.26786 7.52191 6.01311 7.53955 5.79722C7.55561 5.60063 7.55559 5.36851 7.55556 5.13016V2.42543C7.55559 2.18708 7.55561 1.95493 7.53955 1.75834C7.52191 1.54245 7.48029 1.2877 7.34968 1.03136C7.16859 0.675939 6.87962 0.386975 6.52421 0.205881C6.26786 0.0752672 6.01311 0.0336479 5.79722 0.0160087C5.60063 -5.34135e-05 5.3685 -2.5894e-05 5.13014 2.36473e-06L2.42543 2.36625e-06Z" fill="#593D2D"/>
</svg>
