<svg width="22" height="18" viewBox="0 0 22 18" fill="none" xmlns="http://www.w3.org/2000/svg">
<path fill-rule="evenodd" clip-rule="evenodd" d="M11 2.22298C7.40678 2.22298 4.28619 4.79118 2.33569 8.66463C2.30378 8.7281 2.28015 8.775 2.26022 8.8159C2.24265 8.85192 2.23175 8.87559 2.22461 8.89193C2.23175 8.90827 2.24265 8.93194 2.26022 8.96796C2.28015 9.00886 2.30378 9.05576 2.33569 9.11923C4.28619 12.9927 7.40678 15.5609 11 15.5609C14.5932 15.5609 17.7138 12.9927 19.6643 9.11923C19.6962 9.05576 19.7199 9.00886 19.7398 8.96796C19.7573 8.93194 19.7683 8.90827 19.7754 8.89193C19.7683 8.87559 19.7573 8.85192 19.7398 8.8159C19.7199 8.775 19.6962 8.7281 19.6643 8.66463C17.7138 4.79118 14.5932 2.22298 11 2.22298ZM0.350225 7.66484C2.50617 3.38341 6.24258 0 11 0C15.7574 0 19.4939 3.38341 21.6497 7.66484C21.6576 7.6804 21.6656 7.69619 21.6739 7.71253C21.7753 7.91271 21.9064 8.17113 21.9651 8.48968C22.0116 8.7431 22.0116 9.04076 21.9651 9.29418C21.9064 9.61273 21.7753 9.87126 21.6739 10.0713C21.6656 10.0877 21.6576 10.1035 21.6497 10.119C19.4939 14.4005 15.7574 17.7839 11 17.7839C6.24258 17.7839 2.50617 14.4005 0.350225 10.119C0.342434 10.1035 0.334387 10.0877 0.326139 10.0713C0.224638 9.87115 0.093582 9.61273 0.034962 9.29418C-0.011654 9.04076 -0.011654 8.7431 0.034962 8.48968C0.093582 8.17113 0.224638 7.91271 0.326139 7.71253C0.334387 7.69619 0.342434 7.6804 0.350225 7.66484ZM11 6.66895C9.77224 6.66895 8.77701 7.66418 8.77701 8.89193C8.77701 10.1197 9.77224 11.1149 11 11.1149C12.2277 11.1149 13.223 10.1197 13.223 8.89193C13.223 7.66418 12.2277 6.66895 11 6.66895ZM6.55405 8.89193C6.55405 6.43649 8.54457 4.44596 11 4.44596C13.4555 4.44596 15.446 6.43649 15.446 8.89193C15.446 11.3473 13.4555 13.3379 11 13.3379C8.54457 13.3379 6.55405 11.3473 6.55405 8.89193Z" fill="#593D2D"/>
</svg>
