<svg width="19" height="15" viewBox="0 0 19 15" fill="none" xmlns="http://www.w3.org/2000/svg">
<path fill-rule="evenodd" clip-rule="evenodd" d="M0 2.81247C0 1.25918 1.25918 0 2.81247 0H7.49991C9.05319 0 10.3124 1.25918 10.3124 2.81247V11.2499C10.3124 12.2854 9.47292 13.1248 8.4374 13.1248H5.62493V11.2499H8.4374V2.81247C8.4374 2.29471 8.01767 1.87498 7.49991 1.87498H2.81247C2.29471 1.87498 1.87498 2.29471 1.87498 2.81247V10.3124C1.87498 10.8301 2.29471 11.2499 2.81247 11.2499H3.74995V13.1248H2.81247C1.25918 13.1248 0 11.8657 0 10.3124V2.81247Z" fill="#F05A25"/>
<path fill-rule="evenodd" clip-rule="evenodd" d="M8.4375 2.8125H13.336C14.037 2.8125 14.7128 3.07433 15.2309 3.54668L17.8323 5.91857C18.4168 6.45149 18.7499 7.20589 18.7499 7.99686V10.3124C18.7499 11.8657 17.4907 13.1249 15.9374 13.1249H14.9999V11.2499H15.9374C16.4552 11.2499 16.8749 10.8302 16.8749 10.3124V7.99686C16.8749 7.7332 16.7639 7.48174 16.569 7.3041L13.9676 4.9322C13.7949 4.77475 13.5697 4.68748 13.336 4.68748H10.3125V11.2499H13.1249V13.1249H8.4375V2.8125Z" fill="#F05A25"/>
<path fill-rule="evenodd" clip-rule="evenodd" d="M5.62471 12.1875C5.62471 12.7052 5.20498 13.125 4.68722 13.125C4.16946 13.125 3.74973 12.7052 3.74973 12.1875C3.74973 11.6697 4.16946 11.25 4.68722 11.25C5.20498 11.25 5.62471 11.6697 5.62471 12.1875ZM7.49969 12.1875C7.49969 13.7407 6.2405 14.9999 4.68722 14.9999C3.13394 14.9999 1.87476 13.7407 1.87476 12.1875C1.87476 10.6342 3.13394 9.375 4.68722 9.375C6.2405 9.375 7.49969 10.6342 7.49969 12.1875ZM14.9996 12.1875C14.9996 12.7052 14.5799 13.125 14.0621 13.125C13.5443 13.125 13.1246 12.7052 13.1246 12.1875C13.1246 11.6697 13.5443 11.25 14.0621 11.25C14.5799 11.25 14.9996 11.6697 14.9996 12.1875ZM16.8746 12.1875C16.8746 13.7407 15.6154 14.9999 14.0621 14.9999C12.5088 14.9999 11.2496 13.7407 11.2496 12.1875C11.2496 10.6342 12.5088 9.375 14.0621 9.375C15.6154 9.375 16.8746 10.6342 16.8746 12.1875Z" fill="#F05A25"/>
</svg>
